<svg width="16" height="16" viewBox="0 0 16 16" fill="none" xmlns="http://www.w3.org/2000/svg">
<path d="M14 5.00002V4.00002C14 3.6464 13.8595 3.30726 13.6095 3.05721C13.3594 2.80716 13.0203 2.66669 12.6667 2.66669H3.33333C2.97971 2.66669 2.64057 2.80716 2.39052 3.05721C2.14048 3.30726 2 3.6464 2 4.00002V13.3334C2 13.687 2.14048 14.0261 2.39052 14.2762C2.64057 14.5262 2.97971 14.6667 3.33333 14.6667H5.66667" stroke="#737373" stroke-linecap="round" stroke-linejoin="round"/>
<path d="M10.6666 1.33331V3.99998" stroke="#737373" stroke-linecap="round" stroke-linejoin="round"/>
<path d="M5.33337 1.33331V3.99998" stroke="#737373" stroke-linecap="round" stroke-linejoin="round"/>
<path d="M2 6.66669H5.33333" stroke="#737373" stroke-linecap="round" stroke-linejoin="round"/>
<path d="M11.6666 11.6666L10.6666 10.8333V9.33331" stroke="#737373" stroke-linecap="round" stroke-linejoin="round"/>
<path d="M14.6666 10.6667C14.6666 11.7276 14.2452 12.745 13.4951 13.4951C12.7449 14.2453 11.7275 14.6667 10.6666 14.6667C9.60576 14.6667 8.58834 14.2453 7.8382 13.4951C7.08805 12.745 6.66663 11.7276 6.66663 10.6667C6.66663 9.60582 7.08805 8.58841 7.8382 7.83826C8.58834 7.08811 9.60576 6.66669 10.6666 6.66669C11.7275 6.66669 12.7449 7.08811 13.4951 7.83826C14.2452 8.58841 14.6666 9.60582 14.6666 10.6667Z" stroke="#737373" stroke-linecap="round" stroke-linejoin="round"/>
</svg>
