<svg width="1161" height="644" viewBox="0 0 1161 644" fill="none" xmlns="http://www.w3.org/2000/svg">
<g clip-path="url(#clip0_350_8185)">
<mask id="mask0_350_8185" style="mask-type:alpha" maskUnits="userSpaceOnUse" x="-248" y="-421" width="1474" height="1366">
<rect x="30.6035" y="-420.905" width="1690" height="3" transform="rotate(45 30.6035 -420.905)" fill="url(#paint0_linear_350_8185)"/>
<rect x="22.4717" y="-415.955" width="1690" height="3" transform="rotate(45 22.4717 -415.955)" fill="url(#paint1_linear_350_8185)"/>
<rect x="14.3398" y="-411.005" width="1690" height="3" transform="rotate(45 14.3398 -411.005)" fill="url(#paint2_linear_350_8185)"/>
<rect x="6.20801" y="-406.055" width="1690" height="3" transform="rotate(45 6.20801 -406.055)" fill="url(#paint3_linear_350_8185)"/>
<rect x="-1.92383" y="-401.106" width="1690" height="3" transform="rotate(45 -1.92383 -401.106)" fill="url(#paint4_linear_350_8185)"/>
<rect x="-10.0557" y="-396.156" width="1690" height="3" transform="rotate(45 -10.0557 -396.156)" fill="url(#paint5_linear_350_8185)"/>
<rect x="-18.1875" y="-391.206" width="1690" height="3" transform="rotate(45 -18.1875 -391.206)" fill="url(#paint6_linear_350_8185)"/>
<rect x="-26.3193" y="-386.256" width="1690" height="3" transform="rotate(45 -26.3193 -386.256)" fill="url(#paint7_linear_350_8185)"/>
<rect x="-34.4512" y="-381.307" width="1690" height="3" transform="rotate(45 -34.4512 -381.307)" fill="url(#paint8_linear_350_8185)"/>
<rect x="-42.583" y="-376.357" width="1690" height="3" transform="rotate(45 -42.583 -376.357)" fill="url(#paint9_linear_350_8185)"/>
<rect x="-50.7148" y="-371.407" width="1690" height="3" transform="rotate(45 -50.7148 -371.407)" fill="url(#paint10_linear_350_8185)"/>
<rect x="-58.8467" y="-366.457" width="1690" height="3" transform="rotate(45 -58.8467 -366.457)" fill="url(#paint11_linear_350_8185)"/>
<rect x="-66.9785" y="-361.508" width="1690" height="3" transform="rotate(45 -66.9785 -361.508)" fill="url(#paint12_linear_350_8185)"/>
<rect x="-75.1104" y="-356.558" width="1690" height="3" transform="rotate(45 -75.1104 -356.558)" fill="url(#paint13_linear_350_8185)"/>
<rect x="-83.2422" y="-351.608" width="1690" height="3" transform="rotate(45 -83.2422 -351.608)" fill="url(#paint14_linear_350_8185)"/>
<rect x="-91.374" y="-346.658" width="1690" height="3" transform="rotate(45 -91.374 -346.658)" fill="url(#paint15_linear_350_8185)"/>
<rect x="-99.5059" y="-341.709" width="1690" height="3" transform="rotate(45 -99.5059 -341.709)" fill="url(#paint16_linear_350_8185)"/>
<rect x="-107.638" y="-336.759" width="1690" height="3" transform="rotate(45 -107.638 -336.759)" fill="url(#paint17_linear_350_8185)"/>
<rect x="-115.77" y="-331.809" width="1690" height="3" transform="rotate(45 -115.77 -331.809)" fill="url(#paint18_linear_350_8185)"/>
<rect x="-123.901" y="-326.859" width="1690" height="3" transform="rotate(45 -123.901 -326.859)" fill="url(#paint19_linear_350_8185)"/>
<rect x="-132.033" y="-321.91" width="1690" height="3" transform="rotate(45 -132.033 -321.91)" fill="url(#paint20_linear_350_8185)"/>
<rect x="-140.165" y="-316.96" width="1690" height="3" transform="rotate(45 -140.165 -316.96)" fill="url(#paint21_linear_350_8185)"/>
<rect x="-148.297" y="-312.01" width="1690" height="3" transform="rotate(45 -148.297 -312.01)" fill="url(#paint22_linear_350_8185)"/>
<rect x="-156.429" y="-307.06" width="1690" height="3" transform="rotate(45 -156.429 -307.06)" fill="url(#paint23_linear_350_8185)"/>
<rect x="-164.561" y="-302.111" width="1690" height="3" transform="rotate(45 -164.561 -302.111)" fill="url(#paint24_linear_350_8185)"/>
<rect x="-172.692" y="-297.161" width="1690" height="3" transform="rotate(45 -172.692 -297.161)" fill="url(#paint25_linear_350_8185)"/>
<rect x="-180.824" y="-292.211" width="1690" height="3" transform="rotate(45 -180.824 -292.211)" fill="url(#paint26_linear_350_8185)"/>
<rect x="-188.956" y="-287.261" width="1690" height="3" transform="rotate(45 -188.956 -287.261)" fill="url(#paint27_linear_350_8185)"/>
<rect x="-197.088" y="-282.312" width="1690" height="3" transform="rotate(45 -197.088 -282.312)" fill="url(#paint28_linear_350_8185)"/>
<rect x="-205.22" y="-277.362" width="1690" height="3" transform="rotate(45 -205.22 -277.362)" fill="url(#paint29_linear_350_8185)"/>
<rect x="-213.352" y="-272.412" width="1690" height="3" transform="rotate(45 -213.352 -272.412)" fill="url(#paint30_linear_350_8185)"/>
<rect x="-221.483" y="-267.462" width="1690" height="3" transform="rotate(45 -221.483 -267.462)" fill="url(#paint31_linear_350_8185)"/>
<rect x="-229.615" y="-262.513" width="1690" height="3" transform="rotate(45 -229.615 -262.513)" fill="url(#paint32_linear_350_8185)"/>
<rect x="-237.747" y="-257.563" width="1690" height="3" transform="rotate(45 -237.747 -257.563)" fill="url(#paint33_linear_350_8185)"/>
<rect x="-245.879" y="-252.613" width="1690" height="3" transform="rotate(45 -245.879 -252.613)" fill="url(#paint34_linear_350_8185)"/>
</mask>
<g mask="url(#mask0_350_8185)">
<rect x="0.920898" y="-578" width="1640" height="608" transform="rotate(45 0.920898 -578)" fill="url(#paint35_linear_350_8185)"/>
</g>
</g>
<defs>
<linearGradient id="paint0_linear_350_8185" x1="875.604" y1="-420.905" x2="875.604" y2="-417.905" gradientUnits="userSpaceOnUse">
<stop stop-color="white"/>
<stop offset="1" stop-color="white" stop-opacity="0"/>
</linearGradient>
<linearGradient id="paint1_linear_350_8185" x1="867.472" y1="-415.955" x2="867.472" y2="-412.955" gradientUnits="userSpaceOnUse">
<stop stop-color="white"/>
<stop offset="1" stop-color="white" stop-opacity="0"/>
</linearGradient>
<linearGradient id="paint2_linear_350_8185" x1="859.34" y1="-411.005" x2="859.34" y2="-408.005" gradientUnits="userSpaceOnUse">
<stop stop-color="white"/>
<stop offset="1" stop-color="white" stop-opacity="0"/>
</linearGradient>
<linearGradient id="paint3_linear_350_8185" x1="851.208" y1="-406.055" x2="851.208" y2="-403.055" gradientUnits="userSpaceOnUse">
<stop stop-color="white"/>
<stop offset="1" stop-color="white" stop-opacity="0"/>
</linearGradient>
<linearGradient id="paint4_linear_350_8185" x1="843.076" y1="-401.106" x2="843.076" y2="-398.106" gradientUnits="userSpaceOnUse">
<stop stop-color="white"/>
<stop offset="1" stop-color="white" stop-opacity="0"/>
</linearGradient>
<linearGradient id="paint5_linear_350_8185" x1="834.944" y1="-396.156" x2="834.944" y2="-393.156" gradientUnits="userSpaceOnUse">
<stop stop-color="white"/>
<stop offset="1" stop-color="white" stop-opacity="0"/>
</linearGradient>
<linearGradient id="paint6_linear_350_8185" x1="826.812" y1="-391.206" x2="826.812" y2="-388.206" gradientUnits="userSpaceOnUse">
<stop stop-color="white"/>
<stop offset="1" stop-color="white" stop-opacity="0"/>
</linearGradient>
<linearGradient id="paint7_linear_350_8185" x1="818.681" y1="-386.256" x2="818.681" y2="-383.256" gradientUnits="userSpaceOnUse">
<stop stop-color="white"/>
<stop offset="1" stop-color="white" stop-opacity="0"/>
</linearGradient>
<linearGradient id="paint8_linear_350_8185" x1="810.549" y1="-381.307" x2="810.549" y2="-378.307" gradientUnits="userSpaceOnUse">
<stop stop-color="white"/>
<stop offset="1" stop-color="white" stop-opacity="0"/>
</linearGradient>
<linearGradient id="paint9_linear_350_8185" x1="802.417" y1="-376.357" x2="802.417" y2="-373.357" gradientUnits="userSpaceOnUse">
<stop stop-color="white"/>
<stop offset="1" stop-color="white" stop-opacity="0"/>
</linearGradient>
<linearGradient id="paint10_linear_350_8185" x1="794.285" y1="-371.407" x2="794.285" y2="-368.407" gradientUnits="userSpaceOnUse">
<stop stop-color="white"/>
<stop offset="1" stop-color="white" stop-opacity="0"/>
</linearGradient>
<linearGradient id="paint11_linear_350_8185" x1="786.153" y1="-366.457" x2="786.153" y2="-363.457" gradientUnits="userSpaceOnUse">
<stop stop-color="white"/>
<stop offset="1" stop-color="white" stop-opacity="0"/>
</linearGradient>
<linearGradient id="paint12_linear_350_8185" x1="778.021" y1="-361.508" x2="778.021" y2="-358.508" gradientUnits="userSpaceOnUse">
<stop stop-color="white"/>
<stop offset="1" stop-color="white" stop-opacity="0"/>
</linearGradient>
<linearGradient id="paint13_linear_350_8185" x1="769.89" y1="-356.558" x2="769.89" y2="-353.558" gradientUnits="userSpaceOnUse">
<stop stop-color="white"/>
<stop offset="1" stop-color="white" stop-opacity="0"/>
</linearGradient>
<linearGradient id="paint14_linear_350_8185" x1="761.758" y1="-351.608" x2="761.758" y2="-348.608" gradientUnits="userSpaceOnUse">
<stop stop-color="white"/>
<stop offset="1" stop-color="white" stop-opacity="0"/>
</linearGradient>
<linearGradient id="paint15_linear_350_8185" x1="753.626" y1="-346.658" x2="753.626" y2="-343.658" gradientUnits="userSpaceOnUse">
<stop stop-color="white"/>
<stop offset="1" stop-color="white" stop-opacity="0"/>
</linearGradient>
<linearGradient id="paint16_linear_350_8185" x1="745.494" y1="-341.709" x2="745.494" y2="-338.709" gradientUnits="userSpaceOnUse">
<stop stop-color="white"/>
<stop offset="1" stop-color="white" stop-opacity="0"/>
</linearGradient>
<linearGradient id="paint17_linear_350_8185" x1="737.362" y1="-336.759" x2="737.362" y2="-333.759" gradientUnits="userSpaceOnUse">
<stop stop-color="white"/>
<stop offset="1" stop-color="white" stop-opacity="0"/>
</linearGradient>
<linearGradient id="paint18_linear_350_8185" x1="729.23" y1="-331.809" x2="729.23" y2="-328.809" gradientUnits="userSpaceOnUse">
<stop stop-color="white"/>
<stop offset="1" stop-color="white" stop-opacity="0"/>
</linearGradient>
<linearGradient id="paint19_linear_350_8185" x1="721.099" y1="-326.859" x2="721.099" y2="-323.859" gradientUnits="userSpaceOnUse">
<stop stop-color="white"/>
<stop offset="1" stop-color="white" stop-opacity="0"/>
</linearGradient>
<linearGradient id="paint20_linear_350_8185" x1="712.967" y1="-321.91" x2="712.967" y2="-318.91" gradientUnits="userSpaceOnUse">
<stop stop-color="white"/>
<stop offset="1" stop-color="white" stop-opacity="0"/>
</linearGradient>
<linearGradient id="paint21_linear_350_8185" x1="704.835" y1="-316.96" x2="704.835" y2="-313.96" gradientUnits="userSpaceOnUse">
<stop stop-color="white"/>
<stop offset="1" stop-color="white" stop-opacity="0"/>
</linearGradient>
<linearGradient id="paint22_linear_350_8185" x1="696.703" y1="-312.01" x2="696.703" y2="-309.01" gradientUnits="userSpaceOnUse">
<stop stop-color="white"/>
<stop offset="1" stop-color="white" stop-opacity="0"/>
</linearGradient>
<linearGradient id="paint23_linear_350_8185" x1="688.571" y1="-307.06" x2="688.571" y2="-304.06" gradientUnits="userSpaceOnUse">
<stop stop-color="white"/>
<stop offset="1" stop-color="white" stop-opacity="0"/>
</linearGradient>
<linearGradient id="paint24_linear_350_8185" x1="680.439" y1="-302.111" x2="680.439" y2="-299.111" gradientUnits="userSpaceOnUse">
<stop stop-color="white"/>
<stop offset="1" stop-color="white" stop-opacity="0"/>
</linearGradient>
<linearGradient id="paint25_linear_350_8185" x1="672.308" y1="-297.161" x2="672.308" y2="-294.161" gradientUnits="userSpaceOnUse">
<stop stop-color="white"/>
<stop offset="1" stop-color="white" stop-opacity="0"/>
</linearGradient>
<linearGradient id="paint26_linear_350_8185" x1="664.176" y1="-292.211" x2="664.176" y2="-289.211" gradientUnits="userSpaceOnUse">
<stop stop-color="white"/>
<stop offset="1" stop-color="white" stop-opacity="0"/>
</linearGradient>
<linearGradient id="paint27_linear_350_8185" x1="656.044" y1="-287.261" x2="656.044" y2="-284.261" gradientUnits="userSpaceOnUse">
<stop stop-color="white"/>
<stop offset="1" stop-color="white" stop-opacity="0"/>
</linearGradient>
<linearGradient id="paint28_linear_350_8185" x1="647.912" y1="-282.312" x2="647.912" y2="-279.312" gradientUnits="userSpaceOnUse">
<stop stop-color="white"/>
<stop offset="1" stop-color="white" stop-opacity="0"/>
</linearGradient>
<linearGradient id="paint29_linear_350_8185" x1="639.78" y1="-277.362" x2="639.78" y2="-274.362" gradientUnits="userSpaceOnUse">
<stop stop-color="white"/>
<stop offset="1" stop-color="white" stop-opacity="0"/>
</linearGradient>
<linearGradient id="paint30_linear_350_8185" x1="631.648" y1="-272.412" x2="631.648" y2="-269.412" gradientUnits="userSpaceOnUse">
<stop stop-color="white"/>
<stop offset="1" stop-color="white" stop-opacity="0"/>
</linearGradient>
<linearGradient id="paint31_linear_350_8185" x1="623.517" y1="-267.462" x2="623.517" y2="-264.462" gradientUnits="userSpaceOnUse">
<stop stop-color="white"/>
<stop offset="1" stop-color="white" stop-opacity="0"/>
</linearGradient>
<linearGradient id="paint32_linear_350_8185" x1="615.385" y1="-262.513" x2="615.385" y2="-259.513" gradientUnits="userSpaceOnUse">
<stop stop-color="white"/>
<stop offset="1" stop-color="white" stop-opacity="0"/>
</linearGradient>
<linearGradient id="paint33_linear_350_8185" x1="607.253" y1="-257.563" x2="607.253" y2="-254.563" gradientUnits="userSpaceOnUse">
<stop stop-color="white"/>
<stop offset="1" stop-color="white" stop-opacity="0"/>
</linearGradient>
<linearGradient id="paint34_linear_350_8185" x1="599.121" y1="-252.613" x2="599.121" y2="-249.613" gradientUnits="userSpaceOnUse">
<stop stop-color="white"/>
<stop offset="1" stop-color="white" stop-opacity="0"/>
</linearGradient>
<linearGradient id="paint35_linear_350_8185" x1="0.92091" y1="-556.5" x2="1640.92" y2="30" gradientUnits="userSpaceOnUse">
<stop stop-color="white" stop-opacity="0.8"/>
<stop offset="1" stop-color="white" stop-opacity="0.1"/>
</linearGradient>
<clipPath id="clip0_350_8185">
<rect width="1161" height="644" fill="white"/>
</clipPath>
</defs>
</svg>
